<svg viewBox="0 0 147.81476 112.83685" version="1.1" id="svg1">
  <g id="layer1">
    <rect
      x="0"
      width="147.81476"
      height="112.83685"
      rx="5.7573333"
      ry="5.7573333"
      fill="#d7d7d8"
      stroke-width="0"
      id="rect1"
      y="0"></rect>
    <path
      d="m 5.757342,1.3229204 c -2.44475,0 -4.43442,1.98966 -4.43442,4.43441 V 107.07687 c 0,2.44475 1.98967,4.43442 4.43442,4.43442 H 142.05744 c 2.44475,0 4.43442,-1.98967 4.43442,-4.43442 V 5.7573304 c 0,-2.44475 -1.98967,-4.43441 -4.43442,-4.43441 z"
      fill="#ffffff"
      stroke-width="0"
      id="path1"></path>
    <rect
      x="73.3769"
      y="0.67468262"
      width="1.0556875"
      height="111.61183"
      fill="#d7d7d8"
      stroke-width="0"
      id="rect2"></rect>
    <circle cx="67.630142" cy="17.351379" r="1.4948958" fill="#d7d7d8" stroke-width="0" id="circle2"
    ></circle>
    <circle cx="80.181992" cy="17.351379" r="1.4948958" fill="#d7d7d8" stroke-width="0" id="circle3"
    ></circle>
    <circle cx="67.630142" cy="36.885563" r="1.4948958" fill="#d7d7d8" stroke-width="0" id="circle4"
    ></circle>
    <circle cx="80.181992" cy="36.885563" r="1.4948958" fill="#d7d7d8" stroke-width="0" id="circle5"
    ></circle>
    <circle cx="67.630142" cy="56.417103" r="1.4948958" fill="#d7d7d8" stroke-width="0" id="circle6"
    ></circle>
    <circle cx="80.181992" cy="56.417103" r="1.4948958" fill="#d7d7d8" stroke-width="0" id="circle7"
    ></circle>
    <circle cx="67.630142" cy="75.951294" r="1.4948958" fill="#d7d7d8" stroke-width="0" id="circle8"
    ></circle>
    <circle cx="80.181992" cy="75.951294" r="1.4948958" fill="#d7d7d8" stroke-width="0" id="circle9"
    ></circle>
    <circle
      cx="67.630142"
      cy="95.482834"
      r="1.4948958"
      fill="#d7d7d8"
      stroke-width="0"
      id="circle10"></circle>
    <circle
      cx="80.181992"
      cy="95.482834"
      r="1.4948958"
      fill="#d7d7d8"
      stroke-width="0"
      id="circle11"></circle>
    <path
      d="m 67.767733,16.66081 -0.27781,-0.44979 c 0.0688,-0.0423 6.90562,-4.17248 12.84287,0.008 l -0.30427,0.43391 c -5.6515,-3.97933 -12.19729,-0.0318 -12.26079,0.008 z"
      fill="#d7d7d8"
      stroke-width="0"
      id="path11"></path>
    <path
      d="m 67.767733,18.49437 -0.27781,-0.44979 c 0.0688,-0.0423 6.90562,-4.17248 12.84287,0.008 l -0.30427,0.43392 c -5.6515,-3.97934 -12.19729,-0.0317 -12.26079,0.008 z"
      fill="#d7d7d8"
      stroke-width="0"
      id="path12"></path>
    <path
      d="m 67.767733,36.27967 -0.27781,-0.4498 c 0.0688,-0.0423 6.90562,-4.17247 12.84287,0.008 l -0.30427,0.43392 c -5.6515,-3.97933 -12.19729,-0.0317 -12.26079,0.008 z"
      fill="#d7d7d8"
      stroke-width="0"
      id="path13"></path>
    <path
      d="m 67.767733,38.11587 -0.27781,-0.44979 c 0.0688,-0.0423 6.90562,-4.17248 12.84287,0.008 l -0.30427,0.43392 c -5.6515,-3.97934 -12.19729,-0.0318 -12.26079,0.008 z"
      fill="#d7d7d8"
      stroke-width="0"
      id="path14"></path>
    <path
      d="m 67.767733,55.89852 -0.27781,-0.44979 c 0.0688,-0.0423 6.90562,-4.17248 12.84287,0.008 l -0.30427,0.43391 c -5.6515,-3.97933 -12.19729,-0.0317 -12.26079,0.008 z"
      fill="#d7d7d8"
      stroke-width="0"
      id="path15"></path>
    <path
      d="m 67.767733,57.73473 -0.27781,-0.44979 c 0.0688,-0.0423 6.90298,-4.17248 12.84287,0.008 l -0.30427,0.43392 c -5.6515,-3.97933 -12.19729,-0.0317 -12.26079,0.008 z"
      fill="#d7d7d8"
      stroke-width="0"
      id="path16"></path>
    <path
      d="m 67.767733,75.517371 -0.27781,-0.44979 c 0.0688,-0.0423 6.90562,-4.17248 12.84287,0.008 l -0.30427,0.43392 c -5.6515,-3.97669 -12.19729,-0.0318 -12.26079,0.008 z"
      fill="#d7d7d8"
      stroke-width="0"
      id="path17"></path>
    <path
      d="m 67.767733,77.353581 -0.27781,-0.44979 c 0.0688,-0.0423 6.90298,-4.17248 12.84287,0.008 l -0.30427,0.43391 c -5.6515,-3.97933 -12.19729,-0.0318 -12.26079,0.008 z"
      fill="#d7d7d8"
      stroke-width="0"
      id="path18"></path>
    <path
      d="m 67.767733,95.136231 -0.27781,-0.44979 c 0.0688,-0.0423 6.90562,-4.17248 12.84287,0.008 l -0.30427,0.43127 c -5.6515,-3.97933 -12.19729,-0.0318 -12.26079,0.008 z"
      fill="#d7d7d8"
      stroke-width="0"
      id="path19"></path>
    <path
      d="m 67.767733,96.972441 -0.27781,-0.4498 c 0.0688,-0.0423 6.90562,-4.17247 12.84287,0.008 l -0.30427,0.43127 c -5.6515,-3.97933 -12.19729,-0.0317 -12.26079,0.008 z"
      fill="#d7d7d8"
      stroke-width="0"
      id="path20"></path>
    <path
      d="m 13.723942,20.08187 c 5.43719,-0.20902 10.87967,-0.29897 16.32215,-0.26722 5.44248,0.0317 10.795,0.18256 16.18456,0.45508 3.06917,0.15346 6.13304,0.3466 9.19691,0.57944 0.51065,0.0397 0.508,-0.75671 0,-0.79375 -5.4266,-0.41011 -10.86114,-0.6985 -16.30097,-0.86784 -5.43984,-0.16933 -10.795,-0.21166 -16.1925,-0.14023 -3.07182,0.0423 -6.14363,0.12171 -9.2128,0.24077 -0.508,0.0185 -0.51064,0.81228 0,0.79375 v 0 z"
      fill="#6c63ff"
      stroke-width="0"
      id="path30"
      style="fill:#75c9bc;fill-opacity:1"></path>
    <path
      d="m 13.723942,29.06183 c 5.43719,-0.20902 10.87967,-0.29898 16.32215,-0.26723 5.44248,0.0317 10.795,0.18257 16.18456,0.45509 3.06917,0.15346 6.13304,0.3466 9.19691,0.57943 0.51065,0.0397 0.508,-0.7567 0,-0.79375 -5.4266,-0.4101 -10.86114,-0.6985 -16.30097,-0.86783 -5.43984,-0.16933 -10.795,-0.21167 -16.1925,-0.14023 -3.07182,0.0423 -6.14363,0.12171 -9.2128,0.24077 -0.508,0.0185 -0.51064,0.81227 0,0.79375 v 0 z"
      fill="#2f2e43"
      stroke-width="0"
      id="path31"></path>
    <path
      d="m 13.723942,38.04179 c 4.41325,-0.17198 8.82915,-0.36777 13.24769,-0.4445 3.77825,-0.0661 7.5565,-0.005 11.32946,0.17727 2.69081,0.12965 5.37898,0.31221 8.06714,0.51329 0.51065,0.0397 0.508,-0.7567 0,-0.79375 -4.40266,-0.33337 -8.81062,-0.60589 -13.22652,-0.69056 -3.77825,-0.0714 -7.55914,0.0106 -11.33475,0.13758 -2.69346,0.0926 -5.38692,0.20109 -8.08302,0.30692 -0.508,0.0185 -0.51065,0.81227 0,0.79375 z"
      fill="#2f2e43"
      stroke-width="0"
      id="path32"></path>
    <path
      d="m 13.723942,47.02175 c 4.67254,-0.17992 9.34773,-0.37042 14.02292,-0.43921 4.18571,-0.0635 8.37406,-0.008 12.55712,0.18256 2.78606,0.127 5.56948,0.30427 8.3529,0.51594 0.51064,0.0397 0.508,-0.75671 0,-0.79375 -4.66196,-0.35189 -9.32921,-0.61383 -14.00175,-0.69321 -4.18836,-0.0741 -8.37671,0 -12.56242,0.13229 -2.78871,0.0873 -5.57742,0.1958 -8.36612,0.30428 -0.508,0.0185 -0.51065,0.81227 0,0.79375 v 0 z"
      fill="#2f2e43"
      stroke-width="0"
      id="path33"></path>
    <path
      d="m 13.723942,55.99906 c 4.24921,-0.16404 8.49313,-0.42333 12.73969,-0.62177 3.50837,-0.16404 7.01675,-0.2196 10.52777,-0.10319 2.62996,0.0873 5.25727,0.25136 7.87929,0.4498 0.51065,0.0397 0.508,-0.75671 0,-0.79375 -4.23333,-0.32015 -8.47196,-0.54505 -12.71852,-0.5133 -3.51631,0.0265 -7.02469,0.23019 -10.53306,0.41805 -2.62996,0.14022 -5.26257,0.26722 -7.89517,0.37041 -0.508,0.0185 -0.51065,0.81492 0,0.79375 z"
      fill="#2f2e43"
      stroke-width="0"
      id="path34"></path>
    <path
      d="m 13.723942,64.979021 c 5.43719,-0.20902 10.87967,-0.29898 16.32215,-0.26723 5.44248,0.0317 10.795,0.18256 16.18456,0.45508 3.06917,0.15346 6.13304,0.34661 9.19691,0.57944 0.51065,0.0397 0.508,-0.75671 0,-0.79375 -5.4266,-0.4101 -10.86114,-0.698501 -16.30097,-0.867831 -5.43984,-0.16933 -10.795,-0.21167 -16.1925,-0.14023 -3.07182,0.0423 -6.14363,0.12171 -9.2128,0.24077 -0.508,0.0185 -0.51064,0.812271 0,0.793751 v 0 z"
      fill="#2f2e43"
      stroke-width="0"
      id="path35"></path>
  </g>
</svg>
